HIERARCHY
ROOT Hips
{
  OFFSET 20.3238 40.1536 67.9178
  CHANNELS 6 Xposition Yposition Zposition Zrotation Xrotation Yrotation
  JOINT LeftHip
  {
    OFFSET 3.43 -1.06581e-014 -1.42109e-014
    CHANNELS 6 Xposition Yposition Zposition Zrotation Xrotation Yrotation
    JOINT LeftKnee
    {
      OFFSET 6.39488e-014 -18.47 -5.68434e-014
      CHANNELS 6 Xposition Yposition Zposition Zrotation Xrotation Yrotation
      JOINT LeftAnkle
      {
        OFFSET 0 -17.95 -4.44089e-015
        CHANNELS 6 Xposition Yposition Zposition Zrotation Xrotation Yrotation
        End Site
        {
          OFFSET 0 -3.12 0
        }
      }
    }
  }
  JOINT RightHip
  {
    OFFSET -3.43 2.62901e-013 4.26326e-014
    CHANNELS 6 Xposition Yposition Zposition Zrotation Xrotation Yrotation
    JOINT RightKnee
    {
      OFFSET -4.44089e-015 -18.47 -9.9476e-014
      CHANNELS 6 Xposition Yposition Zposition Zrotation Xrotation Yrotation
      JOINT RightAnkle
      {
        OFFSET -5.32907e-015 -17.95 1.06581e-014
        CHANNELS 6 Xposition Yposition Zposition Zrotation Xrotation Yrotation
        End Site
        {
          OFFSET 0 -3.12 0
        }
      }
    }
  }
  JOINT Chest
  {
    OFFSET 4.9738e-014 4.57 1.42109e-014
    CHANNELS 6 Xposition Yposition Zposition Zrotation Xrotation Yrotation
    JOINT Chest2
    {
      OFFSET -1.06581e-014 6.57 -3.55271e-015
      CHANNELS 6 Xposition Yposition Zposition Zrotation Xrotation Yrotation
      JOINT LeftCollar
      {
        OFFSET 1.06 4.19 1.76
        CHANNELS 6 Xposition Yposition Zposition Zrotation Xrotation Yrotation
        JOINT LeftShoulder
        {
          OFFSET 5.81 -1.42109e-014 8.52651e-014
          CHANNELS 6 Xposition Yposition Zposition Zrotation Xrotation Yrotation
          JOINT LeftElbow
          {
            OFFSET 2.02505e-013 -12.08 5.68434e-014
            CHANNELS 6 Xposition Yposition Zposition Zrotation Xrotation Yrotation
            JOINT LeftWrist
            {
              OFFSET -2.13163e-014 -9.82 2.13163e-014
              CHANNELS 6 Xposition Yposition Zposition Zrotation Xrotation Yrotation
              End Site
              {
                OFFSET 0 -7.37 0
              }
            }
          }
        }
      }
      JOINT RightCollar
      {
        OFFSET -1.06 4.19 1.76
        CHANNELS 6 Xposition Yposition Zposition Zrotation Xrotation Yrotation
        JOINT RightShoulder
        {
          OFFSET -6.06 1.42109e-014 -3.73035e-014
          CHANNELS 6 Xposition Yposition Zposition Zrotation Xrotation Yrotation
          JOINT RightElbow
          {
            OFFSET 2.13163e-013 -11.08 5.68434e-014
            CHANNELS 6 Xposition Yposition Zposition Zrotation Xrotation Yrotation
            JOINT RightWrist
            {
              OFFSET 1.42109e-014 -9.82 8.52651e-014
              CHANNELS 6 Xposition Yposition Zposition Zrotation Xrotation Yrotation
              End Site
              {
                OFFSET 0 -7.14001 0
              }
            }
          }
        }
      }
      JOINT Neck
      {
        OFFSET 5.32907e-014 4.05 -1.24345e-014
        CHANNELS 6 Xposition Yposition Zposition Zrotation Xrotation Yrotation
        JOINT Head
        {
          OFFSET 3.55271e-015 5.19 0
          CHANNELS 6 Xposition Yposition Zposition Zrotation Xrotation Yrotation
          End Site
          {
            OFFSET 0 4.14001 0
          }
        }
      }
    }
  }
}
MOTION
Frames:	4
Frame Time:	0.0333333
18.1825 43.7492 -14.4373 1.6841 0.505506 0.197458 3.43 2.59792e-014 3.88585e-013 4.43802 -4.82741 5.25915 -2.0005e-012 -18.47 -2.33812e-012 -0.79261 6.52921 9.24233 0 -17.95 -4.44089e-015 -7.98601 19.9916 1.40612 -3.43 1.87239e-013 8.04866e-012 -5.68719 -11.1261 -4.78201 -4.44089e-015 -18.47 -7.07797e-013 -1.61762 15.7494 -1.54929 -5.32907e-015 -17.95 1.06581e-014 6.36202 19.509 -1.09442 -8.03598e-012 4.57 1.72183e-012 -1.11971 1.1435 2.73558 -1.06581e-014 6.57 -3.55271e-015 -1.20377 0.976356 2.41896 1.06 4.19 1.76 -2.40612 0.78485 -1.42531 5.81 -3.34066e-012 1.34315e-011 28.3184 18.4058 -22.1359 -1.01088e-011 -12.08 1.08154e-013 -33.6462 -64.2442 -41.6978 -2.13163e-014 -9.82 2.13163e-014 17.3643 16.8497 -2.59041 -1.06 4.19 1.76 10.6708 1.2924 3.10518 -6.06 2.90571e-013 -3.73035e-014 -42.1988 15.6684 34.4313 -2.92688e-012 -11.08 -3.41045e-012 27.9508 -63.6815 22.5383 -6.87879e-013 -9.82 8.52651e-014 -10.503 14.7101 1.3596 5.32907e-014 4.05 -1.24345e-014 -0.789464 2.93888 -2.82717 3.55271e-015 5.19 0 0.368454 -0.863017 -3.3445 
18.1455 43.8898 -14.6569 1.93374 0.391389 0.222469 3.43 -6.94445e-014 3.78262e-013 4.31292 -5.61819 5.3684 -2.00466e-012 -18.47 -2.32101e-012 -0.966204 9.53762 8.0727 0 -17.95 -4.44089e-015 -7.16277 17.6036 1.10822 -3.43 -3.13777e-013 8.04566e-012 -6.21731 -12.107 -5.21098 -4.44089e-015 -18.47 -7.09596e-013 -1.72729 18.5166 -2.11193 -5.32907e-015 -17.95 1.06581e-014 5.99726 18.4405 -0.97416 -8.05744e-012 4.57 1.72577e-012 -1.43912 2.09528 2.74695 -1.06581e-014 6.57 -3.55271e-015 -1.50644 1.8425 2.41625 1.06 4.19 1.76 -2.78175 0.792214 -0.984026 5.81 -3.34599e-012 1.34628e-011 29.7956 16.3156 -22.652 -1.00681e-011 -12.08 1.2859e-013 -34.382 -64.2641 -44.5321 -2.13163e-014 -9.82 2.13163e-014 16.5039 17.0123 -2.48635 -1.06 4.19 1.76 10.9861 1.23206 2.26983 -6.06 2.92146e-013 -3.73035e-014 -42.6181 13.7895 33.6746 -2.91931e-012 -11.08 -3.49885e-012 28.1029 -63.739 22.5024 -6.77452e-013 -9.82 8.52651e-014 -9.80119 14.5852 1.25708 5.32907e-014 4.05 -1.24345e-014 -0.813539 1.41058 -2.97476 3.55271e-015 5.19 0 0.608441 0.835212 -3.54344 
18.0702 43.5557 -14.9099 1.62287 0.263429 0.480921 3.43 -1.75915e-013 3.65673e-013 4.76681 -6.51265 5.73684 -2.00879e-012 -18.47 -2.30366e-012 -1.32273 12.4963 5.36443 0 -17.95 -4.44089e-015 -7.30936 17.2153 1.10629 -3.43 -1.99535e-013 8.04246e-012 -5.97503 -12.6843 -5.12154 -4.44089e-015 -18.47 -7.11385e-013 -1.64786 20.4232 -0.616322 -5.32907e-015 -17.95 1.06581e-014 5.98583 17.9758 -0.946666 -8.07878e-012 4.57 1.72967e-012 -1.34284 3.23557 2.55253 -1.06581e-014 6.57 -3.55271e-015 -1.41764 2.87968 2.26396 1.06 4.19 1.76 -2.70803 0.760941 0.177016 5.81 -3.35113e-012 1.34938e-011 30.3588 13.1537 -22.4528 -1.00272e-011 -12.08 1.39328e-013 -34.0108 -63.7509 -46.2402 -2.13163e-014 -9.82 2.13163e-014 14.3306 16.4073 -2.07704 -1.06 4.19 1.76 10.5236 1.10809 1.19888 -6.06 2.93568e-013 -3.73035e-014 -42.0065 11.0579 32.782 -2.91156e-012 -11.08 -3.58522e-012 27.8406 -63.5122 22.46 -6.66886e-013 -9.82 8.52651e-014 -9.52796 14.8836 1.24759 5.32907e-014 4.05 -1.24345e-014 -0.836002 -0.308484 -3.01022 3.55271e-015 5.19 0 0.16389 1.97589 -3.36926 
17.955 42.7453 -15.1594 0.932652 0.37572 1.28792 3.43 2.65954e-013 3.50927e-013 5.61388 -8.4515 6.42007 -2.01288e-012 -18.47 -2.28608e-012 -1.90432 17.1014 1.62896 0 -17.95 -4.44089e-015 -6.23998 15.3233 0.839257 -3.43 -1.1216e-013 8.03905e-012 -5.20027 -13.6252 -4.83526 -4.44089e-015 -18.47 -7.13165e-013 -1.31911 22.8436 0.288168 -5.32907e-015 -17.95 1.06581e-014 5.71941 17.9066 -0.903667 -8.10001e-012 4.57 1.73355e-012 -0.856913 3.95277 2.04548 -1.06581e-014 6.57 -3.55271e-015 -0.94424 3.54214 1.85367 1.06 4.19 1.76 -3.22627 0.745301 1.30121 5.81 -3.35607e-012 1.35245e-011 30.8269 10.4333 -21.8583 -9.98616e-012 -12.08 1.38946e-013 -33.3132 -63.1856 -46.7758 -2.13163e-014 -9.82 2.13163e-014 12.2977 16.0901 -1.74356 -1.06 4.19 1.76 9.92658 1.0378 0.706117 -6.06 2.94835e-013 -3.73035e-014 -41.5405 9.18206 31.6484 -2.90365e-012 -11.08 -3.66956e-012 27.1636 -63.4322 19.8696 -6.5618e-013 -9.82 8.52651e-014 -8.8385 14.6465 1.13799 5.32907e-014 4.05 -1.24345e-014 -1.29677 -0.97925 -2.87773 3.55271e-015 5.19 0 0.328355 1.54668 -3.25985 
